# xmcd
# 
# Track frame offsets:
#     150
#     24570
#     40857
#     56074
#     79305
#     98584
#     117027
#     135463
#     156240
#     174392
# 
# Disc length: 2606
# 
# Revision: 1
# Processed by: cddbd v1.5.2PL0 Copyright (c) Steve Scherf et al.
# Submitted via: fre:ac v1.0.31
# 
DISCID=770a2c0a
DTITLE=Various Artist - 零式
DYEAR=1997
DGENRE=Game
TTITLE0=ALICE SOFT - DATA
TTITLE1=ALICE SOFT - トラック 2
TTITLE2=ALICE SOFT - トラック 3
TTITLE3=ALICE SOFT - トラック 4
TTITLE4=ALICE SOFT - トラック 5
TTITLE5=ALICE SOFT - トラック 6
TTITLE6=ALICE SOFT - トラック 7
TTITLE7=ALICE SOFT - トラック 8
TTITLE8=ALICE SOFT - トラック 9
TTITLE9=ALICE SOFT - トラック 10
EXTD=YEAR: 1997
EXTT0=
EXTT1=
EXTT2=
EXTT3=
EXTT4=
EXTT5=
EXTT6=
EXTT7=
EXTT8=
EXTT9=
PLAYORDER=
